<?xml version="1.0" encoding="utf-8"?>
<!-- Generator: Adobe Illustrator 15.0.0, SVG Export Plug-In . SVG Version: 6.00 Build 0)  -->
<!DOCTYPE svg PUBLIC "-//W3C//DTD SVG 1.1//EN" "http://www.w3.org/Graphics/SVG/1.1/DTD/svg11.dtd">
<svg version="1.1" xmlns="http://www.w3.org/2000/svg" xmlns:xlink="http://www.w3.org/1999/xlink" x="0px" y="0px" width="16px"
	 height="16px" viewBox="0 0 16 16" enable-background="new 0 0 16 16" xml:space="preserve">
<g id="Layer_1">
	<circle fill="#39B54A" stroke="#39B54A" stroke-miterlimit="10" cx="8" cy="3.517" r="2.73"/>
	<ellipse fill="#39B54A" stroke="#39B54A" stroke-miterlimit="10" cx="8" cy="14.592" rx="4.878" ry="0.788"/>
	<path fill="#39B54A" stroke="#39B54A" stroke-miterlimit="10" d="M8,3.954"/>
	<g>
		<g>
			<path fill="#39B54A" d="M6.777,6.72c-0.555,2.442-1.441,5.382-3.715,6.823c-1.107,0.702,0.514,1.271,1.259,0.799
				c2.643-1.676,3.754-4.927,4.406-7.795C8.93,5.655,6.959,5.918,6.777,6.72L6.777,6.72z"/>
		</g>
	</g>
	<g>
		<g>
			<path fill="#39B54A" d="M7.139,7.073c0.634,2.785,1.71,5.954,4.275,7.584c0.667,0.424,2.394-0.5,1.502-1.066
				c-2.354-1.497-3.269-4.502-3.846-7.036C8.88,5.718,6.945,6.222,7.139,7.073L7.139,7.073z"/>
		</g>
	</g>
	<g>
		<g>
			<path fill="#39B54A" d="M8.477,9.261c-0.16-0.07-0.311-0.086-0.484-0.098C7.591,9.139,6.76,9.352,6.648,9.822
				c-0.245,1.027,0.168,2.182,0.414,3.184c0.228,0.929,0.843,1.406,1.795,1.399c0.456-0.004,1.346-0.205,1.346-0.792
				c0-0.676,0.034-1.092-0.597-1.462c-0.715-0.42-0.954-1.266-1.004-2.041c-0.045-0.691-1.766-0.065-1.93,0.385
				c-0.186,0.507-0.329,1.615-0.787,1.856c-0.582,0.307-0.891,0.742-1.211,1.3c-0.461,0.804,1.358,0.479,1.668,0.158
				c0.403-0.416,0.422-0.383,0.931-0.236c-0.124-0.129-0.247-0.258-0.37-0.387c0.071-0.012,0.142-0.023,0.213-0.035
				c-0.264,0.065-0.946,0.333-0.841,0.725c0.106,0.397,0.826,0.272,1.091,0.207c0.667-0.166,1.228-0.479,1.466-1.148
				c0.085-0.239-0.207-0.34-0.37-0.387c-1.392-0.398-2.625-0.102-3.663,0.969c0.556,0.053,1.112,0.105,1.668,0.158
				c0.152-0.266,0.283-0.62,0.576-0.762c0.235-0.114,0.525-0.266,0.681-0.486c0.451-0.638,0.61-1.458,0.875-2.184
				c-0.643,0.128-1.287,0.257-1.93,0.385c0.048,0.744,0.283,1.358,0.745,1.942c0.174,0.221,0.408,0.363,0.648,0.498
				c0.358,0.2,0.208,0.725,0.208,1.063c0.448-0.264,0.897-0.527,1.346-0.792c-0.557,0.005-0.669-1.023-0.748-1.422
				c-0.151-0.772-0.48-1.555-0.292-2.347c-0.448,0.22-0.896,0.439-1.344,0.659c-0.099-0.018-0.199-0.034-0.298-0.051
				c0.419,0.184,0.992,0.036,1.366-0.188C8.547,9.845,8.9,9.447,8.477,9.261L8.477,9.261z"/>
		</g>
	</g>
	<g>
		<g>
			<path fill="#39B54A" d="M7.718,12.728c-0.254-0.133-0.507-0.222-0.786-0.286C6.4,12.318,5.044,12.66,5.47,13.442
				c0.169,0.31,0.578,0.401,0.897,0.469c0.472,0.101,1.02-0.006,1.366-0.365c0.281-0.294,0.211-0.735-0.222-0.826
				c-0.098-0.021-0.231-0.03-0.262-0.088c-0.487,0.334-0.975,0.668-1.462,1.001c0.146,0.034,0.287,0.062,0.42,0.132
				c0.427,0.224,0.991,0.121,1.377-0.145C7.868,13.426,8.144,12.951,7.718,12.728L7.718,12.728z"/>
		</g>
	</g>
</g>
<g id="Layer_2">
</g>
</svg>
